/* XPM */
static char *f13c8a71d4da41cbac7917c8ab82b5dd[] = {
/* columns rows colors chars-per-pixel */
"32 32 78 1 ",
"  c gray43",
". c #6F6F6F",
"X c #838383",
"o c #848484",
"O c #868686",
"+ c gray53",
"@ c #898989",
"# c #8D8D8D",
"$ c #909090",
"% c #939393",
"& c gray58",
"* c #959595",
"= c gray59",
"- c #979797",
"; c gray62",
": c #A0A0A0",
"> c gray63",
", c #A2A2A2",
"< c gray64",
"1 c #A4A4A4",
"2 c #A5A5A5",
"3 c gray65",
"4 c #A7A7A7",
"5 c gray66",
"6 c gray67",
"7 c gray68",
"8 c #AEAEAE",
"9 c #AFAFAF",
"0 c gray69",
"q c #B4B4B4",
"w c #B6B6B6",
"e c #B7B7B7",
"r c gray72",
"t c #B9B9B9",
"y c gray73",
"u c #BBBBBB",
"i c #BCBCBC",
"p c gray77",
"a c #C5C5C5",
"s c gray78",
"d c #C8C8C8",
"f c gray81",
"g c gray82",
"h c #D2D2D2",
"j c gray83",
"k c gray84",
"l c #D7D7D7",
"z c gray85",
"x c gray86",
"c c #DDDDDD",
"v c gray87",
"b c gray88",
"n c #E1E1E1",
"m c #E2E2E2",
"M c gray89",
"N c #E4E4E4",
"B c gray90",
"V c #E7E7E7",
"C c #EAEAEA",
"Z c gray92",
"A c #ECECEC",
"S c gray93",
"D c #EFEFEF",
"F c #F1F1F1",
"G c gray95",
"H c #F3F3F3",
"J c gray96",
"K c #F6F6F6",
"L c gray97",
"P c #F8F8F8",
"I c #F9F9F9",
"U c gray98",
"Y c #FBFBFB",
"T c gray99",
"R c #FDFDFD",
"E c #FEFEFE",
"W c gray100",
"Q c None",
/* pixels */
"QQQQQQQQQQQQQQQQ QQQQQQQQQQQQQQQ",
"QQQQQQQQQQQQQQQ2z:QQQQQQQQQQQQQQ",
"QQQQQQQQQQQQQQ-VWZ2QQQQQQQQQQQQQ",
"QQQQQQQQQQQQQ+cWWWA:QQQQQQQQQQQQ",
"QQQQQQQQQQQQQjWWWWWZ:QQQQQQQQQQQ",
"QQQQQQQQQQQQdPWWWWWWZ2QQQQQQQQQQ",
"QQQQQQQQQQQiPWWWWWWWWA2QQQQQQQQQ",
"QQQQQQQQQQ8HWWWWWWWWWWZ2QQQQQQQQ",
"QQQQQQQQQ:AWWWJWWWjMWWWA2QQQQQQQ",
"QQQQQQQQ-MWWWzePWP8@VWWWA2QQQQQQ",
"QQQQQQQ+cWWWV@-JWPeQ-MWWWA5QQQQQ",
"QQQQQQQjWWWA:Q2JWPeQQ-MWWWA2QQQQ",
"QQQQQQsPWWJ8QQ2PWPeQQQ-MWWJ8QQQQ",
"QQQQQyPWWPiQQQ2JWWyQQQQ-VJiQQQQQ",
"QQQQ8HWWPdQQQQ2JWWAMj#QQ%2QQQQQQ",
"QQQ-AWWWjQQQQQ2JWWWWH:QQQQQQQQQQ",
"QQQ-ZWWWgQQQQQ2PWWWWJ:QQQQQQQQQQ",
"QQQQ5HWWPsQQQQ2JWWAMj#QQ-2QQQQQQ",
"QQQQQyJWWPeQQQ2JWWyQQQQ-MJyQQQQQ",
"QQQQQQsPWWH8QQ2JWPeQQQ-MWWJ0QQQQ",
"QQQQQQQfWWWZ;Q2JWPeQQ-MWWWA:QQQQ",
"QQQQQQQQzWWWM+-JWPeQ-MWWWA2QQQQQ",
"QQQQQQQQ%MWWWjeJWP8@VWWWZ2QQQQQQ",
"QQQQQQQQQ;AWWWJWWWjMWWWZ2QQQQQQQ",
"QQQQQQQQQQ5HWWWWWWWWWWZ2QQQQQQQQ",
"QQQQQQQQQQQyJWWWWWWWWA2QQQQQQQQQ",
"QQQQQQQQQQQQsPWWWWWWZ2QQQQQQQQQQ",
"QQQQQQQQQQQQQgWWWWWA2QQQQQQQQQQQ",
"QQQQQQQQQQQQQXzWWWZ2QQQQQQQQQQQQ",
"QQQQQQQQQQQQQQ%VWZ2QQQQQQQQQQQQQ",
"QQQQQQQQQQQQQQQ:z2QQQQQQQQQQQQQQ",
"QQQQQQQQQQQQQQQQ.QQQQQQQQQQQQQQQ"
};
