/* XPM */
static char *d514a27cff524437ac8727655920842a[] = {
/* columns rows colors chars-per-pixel */
"80 80 182 2 ",
"   c gray2",
".  c #060606",
"X  c #070707",
"o  c gray3",
"O  c #090909",
"+  c gray4",
"@  c #0B0B0B",
"#  c #0C0C0C",
"$  c gray5",
"%  c #0E0E0E",
"&  c gray6",
"*  c #101010",
"=  c gray7",
"-  c #131313",
";  c gray8",
":  c #151515",
">  c #161616",
",  c gray9",
"<  c #191919",
"1  c gray10",
"2  c #1B1B1B",
"3  c gray11",
"4  c #1E1E1E",
"5  c gray12",
"6  c #202020",
"7  c gray13",
"8  c #222222",
"9  c #232323",
"0  c gray14",
"q  c #252525",
"w  c gray15",
"e  c #282828",
"r  c gray16",
"t  c #2A2A2A",
"y  c gray17",
"u  c #2C2C2C",
"i  c #2D2D2D",
"p  c gray18",
"a  c #2F2F2F",
"s  c gray19",
"d  c #313131",
"f  c #323232",
"g  c gray20",
"h  c #353535",
"j  c #373737",
"k  c gray22",
"l  c #3A3A3A",
"z  c gray23",
"x  c #3C3C3C",
"c  c #3E3E3E",
"v  c #3F3F3F",
"b  c gray25",
"n  c #414141",
"m  c #434343",
"M  c #464646",
"N  c #484848",
"B  c gray29",
"V  c #4C4C4C",
"C  c #4E4E4E",
"Z  c #505050",
"A  c #535353",
"S  c gray33",
"D  c #555555",
"F  c #565656",
"G  c #585858",
"H  c #5A5A5A",
"J  c #5B5B5B",
"K  c gray36",
"L  c #5D5D5D",
"P  c gray37",
"I  c #5F5F5F",
"U  c #606060",
"Y  c #626262",
"T  c #646464",
"R  c #656565",
"E  c gray40",
"W  c #676767",
"Q  c #686868",
"!  c DimGray",
"~  c #6A6A6A",
"^  c gray42",
"/  c #6C6C6C",
"(  c #6D6D6D",
")  c #6F6F6F",
"_  c gray44",
"`  c #717171",
"'  c #727272",
"]  c gray45",
"[  c gray46",
"{  c gray47",
"}  c #7C7C7C",
"|  c gray50",
" . c #818181",
".. c gray51",
"X. c gray52",
"o. c #868686",
"O. c gray53",
"+. c #888888",
"@. c #898989",
"#. c #8B8B8B",
"$. c gray55",
"%. c #8D8D8D",
"&. c #8E8E8E",
"*. c gray57",
"=. c #939393",
"-. c gray58",
";. c #959595",
":. c gray59",
">. c #989898",
",. c #9B9B9B",
"<. c #9D9D9D",
"1. c gray62",
"2. c #9F9F9F",
"3. c #A0A0A0",
"4. c gray63",
"5. c #A4A4A4",
"6. c gray65",
"7. c #A7A7A7",
"8. c #A9A9A9",
"9. c gray67",
"0. c #ACACAC",
"q. c gray68",
"w. c #AFAFAF",
"e. c gray69",
"r. c gray70",
"t. c gray71",
"y. c #B6B6B6",
"u. c #B7B7B7",
"i. c gray72",
"p. c #B9B9B9",
"a. c gray73",
"s. c #BBBBBB",
"d. c gray74",
"f. c gray",
"g. c gray75",
"h. c #C1C1C1",
"j. c gray76",
"k. c gray77",
"l. c #C6C6C6",
"z. c #C8C8C8",
"x. c gray79",
"c. c #CBCBCB",
"v. c #CDCDCD",
"b. c #CECECE",
"n. c #D0D0D0",
"m. c #D2D2D2",
"M. c #D5D5D5",
"N. c #D7D7D7",
"B. c gray85",
"V. c #DADADA",
"C. c gray86",
"Z. c #DDDDDD",
"A. c #DFDFDF",
"S. c gray88",
"D. c #E1E1E1",
"F. c gray89",
"G. c gray90",
"H. c #E6E6E6",
"J. c gray91",
"K. c #E9E9E9",
"L. c #EAEAEA",
"P. c gray92",
"I. c #ECECEC",
"U. c gray93",
"Y. c #EEEEEE",
"T. c #EFEFEF",
"R. c #F1F1F1",
"E. c gray95",
"W. c #F3F3F3",
"Q. c #F4F4F4",
"!. c gray96",
"~. c #F6F6F6",
"^. c gray97",
"/. c #F8F8F8",
"(. c #F9F9F9",
"). c gray98",
"_. c #FBFBFB",
"`. c gray99",
"'. c #FDFDFD",
"]. c #FEFEFE",
"[. c gray100",
"{. c None",
/* pixels */
"{.{.{.{.{.{.{.{.{.{.{.{.{.{.{.{.{.{.{.{.{.{.{.{.{.{.{.{.{.{.{.{.{.{.{.{.{.{.{.{.{.{.{.{.{.{.{.{.{.{.{.{.{.{.{.{.{.{.{.{.{.{.{.{.{.{.{.{.{.{.{.{.{.{.{.{.{.{.{.{.",
"{.{.{.{.{.{.{.{.{.{.{.{.{.{.{.{.{.{.{.{.{.{.{.{.{.{.{.{.{.{.{.{.{.{.{.{.{.{.{.{.c C {.{.{.{.{.{.{.{.{.{.{.{.{.{.{.{.{.{.{.{.{.{.{.{.{.{.{.{.{.{.{.{.{.{.{.{.{.{.",
"{.{.{.{.{.{.{.{.{.{.{.{.{.{.{.{.{.{.{.{.{.{.{.{.{.{.{.{.{.{.{.{.{.{.{.{.{.{.{.f b.G.G {.{.{.{.{.{.{.{.{.{.{.{.{.{.{.{.{.{.{.{.{.{.{.{.{.{.{.{.{.{.{.{.{.{.{.{.{.",
"{.{.{.{.{.{.{.{.{.{.{.{.{.{.{.{.{.{.{.{.{.{.{.{.{.{.{.{.{.{.{.{.{.{.{.{.{.{.8 i.[.[.K.G {.{.{.{.{.{.{.{.{.{.{.{.{.{.{.{.{.{.{.{.{.{.{.{.{.{.{.{.{.{.{.{.{.{.{.{.",
"{.{.{.{.{.{.{.{.{.{.{.{.{.{.{.{.{.{.{.{.{.{.{.{.{.{.{.{.{.{.{.{.{.{.{.{.{.; 4.[.[.[.[.G.G {.{.{.{.{.{.{.{.{.{.{.{.{.{.{.{.{.{.{.{.{.{.{.{.{.{.{.{.{.{.{.{.{.{.{.",
"{.{.{.{.{.{.{.{.{.{.{.{.{.{.{.{.{.{.{.{.{.{.{.{.{.{.{.{.{.{.{.{.{.{.{.{.o @.(.[.[.[.[.[.G.L {.{.{.{.{.{.{.{.{.{.{.{.{.{.{.{.{.{.{.{.{.{.{.{.{.{.{.{.{.{.{.{.{.{.",
"{.{.{.{.{.{.{.{.{.{.{.{.{.{.{.{.{.{.{.{.{.{.{.{.{.{.{.{.{.{.{.{.{.{.{.{.( !.[.[.[.[.[.[.[.K.L {.{.{.{.{.{.{.{.{.{.{.{.{.{.{.{.{.{.{.{.{.{.{.{.{.{.{.{.{.{.{.{.{.",
"{.{.{.{.{.{.{.{.{.{.{.{.{.{.{.{.{.{.{.{.{.{.{.{.{.{.{.{.{.{.{.{.{.{.{.G I.[.[.[.[.[.[.[.[.[.K.G {.{.{.{.{.{.{.{.{.{.{.{.{.{.{.{.{.{.{.{.{.{.{.{.{.{.{.{.{.{.{.{.",
"{.{.{.{.{.{.{.{.{.{.{.{.{.{.{.{.{.{.{.{.{.{.{.{.{.{.{.{.{.{.{.{.{.{.n Z.[.[.[.[.[.[.[.[.[.[.[.K.L {.{.{.{.{.{.{.{.{.{.{.{.{.{.{.{.{.{.{.{.{.{.{.{.{.{.{.{.{.{.{.",
"{.{.{.{.{.{.{.{.{.{.{.{.{.{.{.{.{.{.{.{.{.{.{.{.{.{.{.{.{.{.{.{.{.f x.[.[.[.[.[.[.[.[.[.[.[.[.[.K.Y {.{.{.{.{.{.{.{.{.{.{.{.{.{.{.{.{.{.{.{.{.{.{.{.{.{.{.{.{.{.",
"{.{.{.{.{.{.{.{.{.{.{.{.{.{.{.{.{.{.{.{.{.{.{.{.{.{.{.{.{.{.{.{.8 t.[.[.[.[.[.[.[.[.[.[.[.[.[.[.[.K.L {.{.{.{.{.{.{.{.{.{.{.{.{.{.{.{.{.{.{.{.{.{.{.{.{.{.{.{.{.",
"{.{.{.{.{.{.{.{.{.{.{.{.{.{.{.{.{.{.{.{.{.{.{.{.{.{.{.{.{.{.{.; <.[.[.[.[.[.[.[.[.[.[.[.[.[.[.[.[.[.K.Y {.{.{.{.{.{.{.{.{.{.{.{.{.{.{.{.{.{.{.{.{.{.{.{.{.{.{.{.",
"{.{.{.{.{.{.{.{.{.{.{.{.{.{.{.{.{.{.{.{.{.{.{.{.{.{.{.{.{.{.o X.(.[.[.[.[.[.[.[.[.[.[.[.[.[.[.[.[.[.[.K.Y {.{.{.{.{.{.{.{.{.{.{.{.{.{.{.{.{.{.{.{.{.{.{.{.{.{.{.",
"{.{.{.{.{.{.{.{.{.{.{.{.{.{.{.{.{.{.{.{.{.{.{.{.{.{.{.{.{.{.( !.[.[.[.[.[.[.[.[.[.[.[.[.[.[.[.[.[.[.[.[.I.Y {.{.{.{.{.{.{.{.{.{.{.{.{.{.{.{.{.{.{.{.{.{.{.{.{.{.",
"{.{.{.{.{.{.{.{.{.{.{.{.{.{.{.{.{.{.{.{.{.{.{.{.{.{.{.{.{.F K.[.[.[.[.[.[.[.[.[.[.[.[.[.[.[.[.[.[.[.[.[.[.K.Y {.{.{.{.{.{.{.{.{.{.{.{.{.{.{.{.{.{.{.{.{.{.{.{.{.",
"{.{.{.{.{.{.{.{.{.{.{.{.{.{.{.{.{.{.{.{.{.{.{.{.{.{.{.{.n B.[.[.[.[.[.[.[.[.[.[.[.[.[.[.[.[.[.[.[.[.[.[.[.[.I.W {.{.{.{.{.{.{.{.{.{.{.{.{.{.{.{.{.{.{.{.{.{.{.{.",
"{.{.{.{.{.{.{.{.{.{.{.{.{.{.{.{.{.{.{.{.{.{.{.{.{.{.{.i x.[.[.[.[.[.[.[.[.[.[.[.[.[.[.[.[.[.[.[.[.[.[.[.[.[.[.I.W {.{.{.{.{.{.{.{.{.{.{.{.{.{.{.{.{.{.{.{.{.{.{.",
"{.{.{.{.{.{.{.{.{.{.{.{.{.{.{.{.{.{.{.{.{.{.{.{.{.{.3 t.[.[.[.[.[.[.[.[.[.[.[.[.[.[.[.[.[.[.[.[.[.[.[.[.[.[.[.[.I.W {.{.{.{.{.{.{.{.{.{.{.{.{.{.{.{.{.{.{.{.{.{.",
"{.{.{.{.{.{.{.{.{.{.{.{.{.{.{.{.{.{.{.{.{.{.{.{.{.; ,.[.[.[.[.[.[.[.[.[.[.[.[.[.[.[.[.[.[.[.[.[.[.[.[.[.[.[.[.[.[.I.~ {.{.{.{.{.{.{.{.{.{.{.{.{.{.{.{.{.{.{.{.{.",
"{.{.{.{.{.{.{.{.{.{.{.{.{.{.{.{.{.{.{.{.{.{.{.{.o ..(.[.[.[.[.[.[.[.[.[.[.[.[.[.[.[.[.[.[.[.[.[.[.[.[.[.[.[.[.[.[.[.I.~ {.{.{.{.{.{.{.{.{.{.{.{.{.{.{.{.{.{.{.{.",
"{.{.{.{.{.{.{.{.{.{.{.{.{.{.{.{.{.{.{.{.{.{.{.{.~ E.[.[.[.[.[.[.[.[.[.[.[.[.[.[.[.[.[.[.[.[.!.[.[.[.[.[.[.[.[.[.[.[.[.I.~ {.{.{.{.{.{.{.{.{.{.{.{.{.{.{.{.{.{.{.",
"{.{.{.{.{.{.{.{.{.{.{.{.{.{.{.{.{.{.{.{.{.{.{.A G.[.[.[.[.[.[.[.[.[.[.[.[.[.[.[.[.[.[.[.[.[.=.g.[.[.[.[.[.[.[.[.[.[.[.[.I.~   {.{.{.{.{.{.{.{.{.{.{.{.{.{.{.{.{.",
"{.{.{.{.{.{.{.{.{.{.{.{.{.{.{.{.{.{.{.{.{.{.c B.[.[.[.[.[.[.[.[.[.[.[.I.B.[.[.[.[.[.[.[.[.[.( 0 h.[.[.[.[.[.[.[.[.[.[.[.[.I.(   {.{.{.{.{.{.{.{.{.{.{.{.{.{.{.{.",
"{.{.{.{.{.{.{.{.{.{.{.{.{.{.{.{.{.{.{.{.{.i l.[.[.[.[.[.[.[.[.[.[.[.(.{ &.[.[.[.[.[.[.[.[.[.` {.i h.[.[.[.[.[.[.[.[.[.[.[.[.E.~   {.{.{.{.{.{.{.{.{.{.{.{.{.{.{.",
"{.{.{.{.{.{.{.{.{.{.{.{.{.{.{.{.{.{.{.{.3 r.[.[.[.[.[.[.[.[.[.[.[.[.:.o &.[.[.[.[.[.[.[.[.[.` {.{.f g.[.[.[.[.[.[.[.[.[.[.[.[.I.(   {.{.{.{.{.{.{.{.{.{.{.{.{.{.",
"{.{.{.{.{.{.{.{.{.{.{.{.{.{.{.{.{.{.{.= :.[.[.[.[.[.[.[.[.[.[.[.[.q.3 {.&.[.[.[.[.[.[.[.[.[.` {.{.{.i g.[.[.[.[.[.[.[.[.[.[.[.[.E.(   {.{.{.{.{.{.{.{.{.{.{.{.{.",
"{.{.{.{.{.{.{.{.{.{.{.{.{.{.{.{.{.{.o | (.[.[.[.[.[.[.[.[.[.[.[.h.y {.{.&.[.[.[.[.[.[.[.[.[.` {.{.{.{.f g.[.[.[.[.[.[.[.[.[.[.[.[.E.`   {.{.{.{.{.{.{.{.{.{.{.{.",
"{.{.{.{.{.{.{.{.{.{.{.{.{.{.{.{.{.{.W E.[.[.[.[.[.[.[.[.[.[.[.M.z {.{.{.&.[.[.[.[.[.[.[.[.[.` {.{.{.{.{.i g.[.[.[.[.[.[.[.[.[.[.[.[.E.` o {.{.{.{.{.{.{.{.{.{.{.",
"{.{.{.{.{.{.{.{.{.{.{.{.{.{.{.{.{.A G.[.[.[.[.[.[.[.[.[.[.[.F.C {.{.{.{.&.[.[.[.[.[.[.[.[.[.` {.{.{.{.{.{.i h.[.[.[.[.[.[.[.[.[.[.[.[.E.` o {.{.{.{.{.{.{.{.{.{.",
"{.{.{.{.{.{.{.{.{.{.{.{.{.{.{.{.z M.[.[.[.[.[.[.[.[.[.[.[.E.W {.{.{.{.{.@.[.[.[.[.[.[.[.[.[.` {.{.{.{.{.{.{.i h.[.[.[.[.[.[.[.[.[.[.[.[.E.[ o {.{.{.{.{.{.{.{.{.",
"{.{.{.{.{.{.{.{.{.{.{.{.{.{.{.y l.[.[.[.[.[.[.[.[.[.[.[.(.|   {.{.{.{.{.&.[.[.[.[.[.[.[.[.[.` {.{.{.{.{.{.{.{.f g.[.[.[.[.[.[.[.[.[.[.[.[.i.< {.{.{.{.{.{.{.{.{.",
"{.{.{.{.{.{.{.{.{.{.{.{.{.{.3 q.[.[.[.[.[.[.[.[.[.[.[.[.=.& {.{.{.{.{.{.&.[.[.[.[.[.[.[.[.[.` {.{.{.{.{.{.{.{.{.i g.[.[.[.[.[.[.[.[.[.[.x.h {.{.{.{.{.{.{.{.{.{.",
"{.{.{.{.{.{.{.{.{.{.{.{.{.= :.[.[.[.[.[.[.[.[.[.[.[.[.9.3 {.{.{.{.{.{.{.&.[.[.[.[.[.[.[.[.[.` {.{.{.{.{.{.{.{.{.{.f h.[.[.[.[.[.[.[.[.l.h {.{.{.{.{.{.{.{.{.{.{.",
"{.{.{.{.{.{.{.{.{.{.{.{.  { (.[.[.[.[.[.[.[.[.[.[.[.h.y {.{.{.{.{.{.{.{.&.[.[.[.[.[.[.[.[.[.` {.{.{.{.{.{.{.{.{.{.{.i h.[.[.[.[.[.[.x.h {.{.{.{.{.{.{.{.{.{.{.{.",
"{.{.{.{.{.{.{.{.{.{.{.{.W E.[.[.[.[.[.[.[.[.[.[.[.M.z {.{.{.{.{.{.{.{.{.&.[.[.[.[.[.[.[.[.[...0 y y i y i ; {.{.{.{.{.i g.[.[.[.[.l.h {.{.{.{.{.{.{.{.{.{.{.{.{.",
"{.{.{.{.{.{.{.{.{.{.{.C G.[.[.[.[.[.[.[.[.[.[.[.G.C {.{.{.{.{.{.{.{.{.{.@.[.[.[.[.[.[.[.[.[.I.F.Z.F.Z.F.Z.L {.{.{.{.{.{.i g.[.[.x.h {.{.{.{.{.{.{.{.{.{.{.{.{.{.",
"{.{.{.{.{.{.{.{.{.{.z M.[.[.[.[.[.[.[.[.[.[.[.I.W {.{.{.{.{.{.{.{.{.{.{.&.[.[.[.[.[.[.[.[.[.[.[.[.[.[.[.[.~ {.{.{.{.{.{.{.f h.l.h {.{.{.{.{.{.{.{.{.{.{.{.{.{.{.",
"{.{.{.{.{.{.{.{.{.y h.[.[.[.[.[.[.[.[.[.[.[.(.|   {.{.{.{.{.{.{.{.{.{.{.&.[.[.[.[.[.[.[.[.[.[.[.[.[.[.[.[.~ {.{.{.{.{.{.{.{.y i {.{.{.{.{.{.{.{.{.{.{.{.{.{.{.{.",
"{.{.{.{.{.{.{.{.< 9.[.[.[.[.[.[.[.[.[.[.[.[.=.= {.{.{.{.{.{.{.{.{.{.{.{.&.[.[.[.[.[.[.[.[.[.[.[.[.[.[.[.[.W {.{.{.{.{.{.{.{.{.{.{.{.{.{.{.{.{.{.{.{.{.{.{.{.{.{.",
"{.{.{.{.{.{.{.  &.[.[.[.[.[.[.[.[.[.[.[.[.q.< {.{.{.{.{.{.{.{.{.{.{.{.{.&.[.[.[.[.[.[.[.[.[.[.[.[.[.[.[.[.~ {.{.{.{.{.{.{.{.{.{.{.{.{.{.{.{.{.{.{.{.{.{.{.{.{.{.",
"{.{.{.{.{.{.{.{...(.[.[.[.[.[.[.[.[.[.[.[.6.; {.{.{.{.{.{.{.{.{.{.{.{.{.@.[.[.[.[.[.[.[.[.[.[.[.[.[.[.[.[.~ {.{.{.{.{.{.{.{.{.{.{.{.{.{.{.{.{.{.{.{.{.{.{.{.{.{.",
"{.{.{.{.{.{.{.{.= ,.[.[.[.[.[.[.[.[.[.[.[.(.X.& {.{.{.{.{.{.{.{.{.{.{.{.&.[.[.[.[.[.[.[.[.[.[.[.[.[.[.[.[.~ {.{.{.{.{.{.{.{.{.{.{.{.{.{.{.{.{.{.{.{.{.{.{.{.{.{.",
"{.{.{.{.{.{.{.{.{.8 r.[.[.[.[.[.[.[.[.[.[.[.!.( {.{.{.{.{.{.{.{.{.{.{.{.&.[.[.[.[.[.[.[.[.[.[.[.[.[.[.[.[.~ {.{.{.{.{.{.{.{.y 0 {.{.{.{.{.{.{.{.{.{.{.{.{.{.{.{.",
"{.{.{.{.{.{.{.{.{.{.i x.[.[.[.[.[.[.[.[.[.[.[.I.G {.{.{.{.{.{.{.{.{.{.{.&.[.[.[.[.[.[.[.[.[.[.[.[.[.[.[.[.~ {.{.{.{.{.{.{.i h.h.f {.{.{.{.{.{.{.{.{.{.{.{.{.{.{.",
"{.{.{.{.{.{.{.{.{.{.{.n B.[.[.[.[.[.[.[.[.[.[.[.Z.M {.{.{.{.{.{.{.{.{.{.&.[.[.[.[.[.[.[.[.[.I.F.Z.F.Z.F.Z.L {.{.{.{.{.{.f g.[.[.h.f {.{.{.{.{.{.{.{.{.{.{.{.{.{.",
"{.{.{.{.{.{.{.{.{.{.{.{.F K.[.[.[.[.[.[.[.[.[.[.[.x.f {.{.{.{.{.{.{.{.{.&.[.[.[.[.[.[.[.[.[...0 i y y y i ; {.{.{.{.{.i g.[.[.[.[.l.h {.{.{.{.{.{.{.{.{.{.{.{.{.",
"{.{.{.{.{.{.{.{.{.{.{.{.{.( !.[.[.[.[.[.[.[.[.[.[.[.t.8 {.{.{.{.{.{.{.{.&.[.[.[.[.[.[.[.[.[.` {.{.{.{.{.{.{.{.{.{.{.i h.[.[.[.[.[.[.x.h {.{.{.{.{.{.{.{.{.{.{.{.",
"{.{.{.{.{.{.{.{.{.{.{.{.{.& X.(.[.[.[.[.[.[.[.[.[.[.[.4.; {.{.{.{.{.{.{.@.[.[.[.[.[.[.[.[.[.` {.{.{.{.{.{.{.{.{.{.f g.[.[.[.[.[.[.[.[.b.c {.{.{.{.{.{.{.{.{.{.{.",
"{.{.{.{.{.{.{.{.{.{.{.{.{.{.; <.[.[.[.[.[.[.[.[.[.[.[.(.X.& {.{.{.{.{.{.&.[.[.[.[.[.[.[.[.[.` {.{.{.{.{.{.{.{.{.i h.[.[.[.[.[.[.[.[.[.[.b.n {.{.{.{.{.{.{.{.{.{.",
"{.{.{.{.{.{.{.{.{.{.{.{.{.{.{.8 t.[.[.[.[.[.[.[.[.[.[.[.!.` {.{.{.{.{.{.@.[.[.[.[.[.[.[.[.[.` {.{.{.{.{.{.{.{.f g.[.[.[.[.[.[.[.[.[.[.[.[.h.< {.{.{.{.{.{.{.{.{.",
"{.{.{.{.{.{.{.{.{.{.{.{.{.{.{.{.f b.[.[.[.[.[.[.[.[.[.[.[.K.G {.{.{.{.{.&.[.[.[.[.[.[.[.[.[.` {.{.{.{.{.{.{.i g.[.[.[.[.[.[.[.[.[.[.[.[.I.W {.{.{.{.{.{.{.{.{.{.",
"{.{.{.{.{.{.{.{.{.{.{.{.{.{.{.{.{.n Z.[.[.[.[.[.[.[.[.[.[.[.Z.M {.{.{.{.&.[.[.[.[.[.[.[.[.[.` {.{.{.{.{.{.i g.[.[.[.[.[.[.[.[.[.[.[.[.I.W {.{.{.{.{.{.{.{.{.{.{.",
"{.{.{.{.{.{.{.{.{.{.{.{.{.{.{.{.{.{.G K.[.[.[.[.[.[.[.[.[.[.[.x.f {.{.{.&.[.[.[.[.[.[.[.[.[.` {.{.{.{.{.f g.[.[.[.[.[.[.[.[.[.[.[.[.I.W {.{.{.{.{.{.{.{.{.{.{.{.",
"{.{.{.{.{.{.{.{.{.{.{.{.{.{.{.{.{.{.{.` !.[.[.[.[.[.[.[.[.[.[.[.t.8 {.{.&.[.[.[.[.[.[.[.[.[.` {.{.{.{.i g.[.[.[.[.[.[.[.[.[.[.[.[.K.W {.{.{.{.{.{.{.{.{.{.{.{.{.",
"{.{.{.{.{.{.{.{.{.{.{.{.{.{.{.{.{.{.{.& @.(.[.[.[.[.[.[.[.[.[.[.[.<.; {.&.[.[.[.[.[.[.[.[.[.` {.{.{.f g.[.[.[.[.[.[.[.[.[.[.[.[.I.W {.{.{.{.{.{.{.{.{.{.{.{.{.{.",
"{.{.{.{.{.{.{.{.{.{.{.{.{.{.{.{.{.{.{.{.; 4.[.[.[.[.[.[.[.[.[.[.[.[.@.  &.[.[.[.[.[.[.[.[.[.` {.{.i g.[.[.[.[.[.[.[.[.[.[.[.[.I.W {.{.{.{.{.{.{.{.{.{.{.{.{.{.{.",
"{.{.{.{.{.{.{.{.{.{.{.{.{.{.{.{.{.{.{.{.{.0 i.[.[.[.[.[.[.[.[.[.[.[.!.~ &.[.[.[.[.[.[.[.[.[.` {.i g.[.[.[.[.[.[.[.[.[.[.[.[.I.W {.{.{.{.{.{.{.{.{.{.{.{.{.{.{.{.",
"{.{.{.{.{.{.{.{.{.{.{.{.{.{.{.{.{.{.{.{.{.{.f b.[.[.[.[.[.[.[.[.[.[.[.K.m.[.[.[.[.[.[.[.[.[.( 8 h.[.[.[.[.[.[.[.[.[.[.[.[.I.W {.{.{.{.{.{.{.{.{.{.{.{.{.{.{.{.{.",
"{.{.{.{.{.{.{.{.{.{.{.{.{.{.{.{.{.{.{.{.{.{.{.M Z.[.[.[.[.[.[.[.[.[.[.[.[.[.[.[.[.[.[.[.[.[.=.g.[.[.[.[.[.[.[.[.[.[.[.[.I.W {.{.{.{.{.{.{.{.{.{.{.{.{.{.{.{.{.{.",
"{.{.{.{.{.{.{.{.{.{.{.{.{.{.{.{.{.{.{.{.{.{.{.{.L I.[.[.[.[.[.[.[.[.[.[.[.[.[.[.[.[.[.[.[.[.!.[.[.[.[.[.[.[.[.[.[.[.[.I.W {.{.{.{.{.{.{.{.{.{.{.{.{.{.{.{.{.{.{.",
"{.{.{.{.{.{.{.{.{.{.{.{.{.{.{.{.{.{.{.{.{.{.{.{.{.` !.[.[.[.[.[.[.[.[.[.[.[.[.[.[.[.[.[.[.[.[.[.[.[.[.[.[.[.[.[.[.[.I.W {.{.{.{.{.{.{.{.{.{.{.{.{.{.{.{.{.{.{.{.",
"{.{.{.{.{.{.{.{.{.{.{.{.{.{.{.{.{.{.{.{.{.{.{.{.{.& @.[.[.[.[.[.[.[.[.[.[.[.[.[.[.[.[.[.[.[.[.[.[.[.[.[.[.[.[.[.[.K.W {.{.{.{.{.{.{.{.{.{.{.{.{.{.{.{.{.{.{.{.{.",
"{.{.{.{.{.{.{.{.{.{.{.{.{.{.{.{.{.{.{.{.{.{.{.{.{.{.; 6.[.[.[.[.[.[.[.[.[.[.[.[.[.[.[.[.[.[.[.[.[.[.[.[.[.[.[.[.I.W {.{.{.{.{.{.{.{.{.{.{.{.{.{.{.{.{.{.{.{.{.{.",
"{.{.{.{.{.{.{.{.{.{.{.{.{.{.{.{.{.{.{.{.{.{.{.{.{.{.{.0 i.[.[.[.[.[.[.[.[.[.[.[.[.[.[.[.[.[.[.[.[.[.[.[.[.[.[.I.W {.{.{.{.{.{.{.{.{.{.{.{.{.{.{.{.{.{.{.{.{.{.{.",
"{.{.{.{.{.{.{.{.{.{.{.{.{.{.{.{.{.{.{.{.{.{.{.{.{.{.{.{.h m.[.[.[.[.[.[.[.[.[.[.[.[.[.[.[.[.[.[.[.[.[.[.[.[.I.W {.{.{.{.{.{.{.{.{.{.{.{.{.{.{.{.{.{.{.{.{.{.{.{.",
"{.{.{.{.{.{.{.{.{.{.{.{.{.{.{.{.{.{.{.{.{.{.{.{.{.{.{.{.{.N F.[.[.[.[.[.[.[.[.[.[.[.[.[.[.[.[.[.[.[.[.[.[.I.W {.{.{.{.{.{.{.{.{.{.{.{.{.{.{.{.{.{.{.{.{.{.{.{.{.",
"{.{.{.{.{.{.{.{.{.{.{.{.{.{.{.{.{.{.{.{.{.{.{.{.{.{.{.{.{.{.L I.[.[.[.[.[.[.[.[.[.[.[.[.[.[.[.[.[.[.[.[.I.W {.{.{.{.{.{.{.{.{.{.{.{.{.{.{.{.{.{.{.{.{.{.{.{.{.{.",
"{.{.{.{.{.{.{.{.{.{.{.{.{.{.{.{.{.{.{.{.{.{.{.{.{.{.{.{.{.{.{.[ !.[.[.[.[.[.[.[.[.[.[.[.[.[.[.[.[.[.[.I.W {.{.{.{.{.{.{.{.{.{.{.{.{.{.{.{.{.{.{.{.{.{.{.{.{.{.{.",
"{.{.{.{.{.{.{.{.{.{.{.{.{.{.{.{.{.{.{.{.{.{.{.{.{.{.{.{.{.{.{.& &.[.[.[.[.[.[.[.[.[.[.[.[.[.[.[.[.[.I.W {.{.{.{.{.{.{.{.{.{.{.{.{.{.{.{.{.{.{.{.{.{.{.{.{.{.{.{.",
"{.{.{.{.{.{.{.{.{.{.{.{.{.{.{.{.{.{.{.{.{.{.{.{.{.{.{.{.{.{.{.{.< 9.[.[.[.[.[.[.[.[.[.[.[.[.[.[.[.K.W {.{.{.{.{.{.{.{.{.{.{.{.{.{.{.{.{.{.{.{.{.{.{.{.{.{.{.{.{.",
"{.{.{.{.{.{.{.{.{.{.{.{.{.{.{.{.{.{.{.{.{.{.{.{.{.{.{.{.{.{.{.{.{.0 g.[.[.[.[.[.[.[.[.[.[.[.[.[.I.W {.{.{.{.{.{.{.{.{.{.{.{.{.{.{.{.{.{.{.{.{.{.{.{.{.{.{.{.{.{.",
"{.{.{.{.{.{.{.{.{.{.{.{.{.{.{.{.{.{.{.{.{.{.{.{.{.{.{.{.{.{.{.{.{.{.h m.[.[.[.[.[.[.[.[.[.[.[.I.W {.{.{.{.{.{.{.{.{.{.{.{.{.{.{.{.{.{.{.{.{.{.{.{.{.{.{.{.{.{.{.",
"{.{.{.{.{.{.{.{.{.{.{.{.{.{.{.{.{.{.{.{.{.{.{.{.{.{.{.{.{.{.{.{.{.{.{.N G.[.[.[.[.[.[.[.[.[.I.W {.{.{.{.{.{.{.{.{.{.{.{.{.{.{.{.{.{.{.{.{.{.{.{.{.{.{.{.{.{.{.{.",
"{.{.{.{.{.{.{.{.{.{.{.{.{.{.{.{.{.{.{.{.{.{.{.{.{.{.{.{.{.{.{.{.{.{.{.{.Y I.[.[.[.[.[.[.[.K.W {.{.{.{.{.{.{.{.{.{.{.{.{.{.{.{.{.{.{.{.{.{.{.{.{.{.{.{.{.{.{.{.{.",
"{.{.{.{.{.{.{.{.{.{.{.{.{.{.{.{.{.{.{.{.{.{.{.{.{.{.{.{.{.{.{.{.{.{.{.{.  [ (.[.[.[.[.[.I.W {.{.{.{.{.{.{.{.{.{.{.{.{.{.{.{.{.{.{.{.{.{.{.{.{.{.{.{.{.{.{.{.{.{.",
"{.{.{.{.{.{.{.{.{.{.{.{.{.{.{.{.{.{.{.{.{.{.{.{.{.{.{.{.{.{.{.{.{.{.{.{.{.= =.[.[.[.[.I.W {.{.{.{.{.{.{.{.{.{.{.{.{.{.{.{.{.{.{.{.{.{.{.{.{.{.{.{.{.{.{.{.{.{.{.",
"{.{.{.{.{.{.{.{.{.{.{.{.{.{.{.{.{.{.{.{.{.{.{.{.{.{.{.{.{.{.{.{.{.{.{.{.{.{.< 9.[.[.I.W {.{.{.{.{.{.{.{.{.{.{.{.{.{.{.{.{.{.{.{.{.{.{.{.{.{.{.{.{.{.{.{.{.{.{.{.",
"{.{.{.{.{.{.{.{.{.{.{.{.{.{.{.{.{.{.{.{.{.{.{.{.{.{.{.{.{.{.{.{.{.{.{.{.{.{.{.y h.I.W {.{.{.{.{.{.{.{.{.{.{.{.{.{.{.{.{.{.{.{.{.{.{.{.{.{.{.{.{.{.{.{.{.{.{.{.{.",
"{.{.{.{.{.{.{.{.{.{.{.{.{.{.{.{.{.{.{.{.{.{.{.{.{.{.{.{.{.{.{.{.{.{.{.{.{.{.{.{.h F {.{.{.{.{.{.{.{.{.{.{.{.{.{.{.{.{.{.{.{.{.{.{.{.{.{.{.{.{.{.{.{.{.{.{.{.{.{.",
"{.{.{.{.{.{.{.{.{.{.{.{.{.{.{.{.{.{.{.{.{.{.{.{.{.{.{.{.{.{.{.{.{.{.{.{.{.{.{.{.{.{.{.{.{.{.{.{.{.{.{.{.{.{.{.{.{.{.{.{.{.{.{.{.{.{.{.{.{.{.{.{.{.{.{.{.{.{.{.{."
};
