/* XPM */
static char *bitcoin32_tmp[] = {
/* columns rows colors chars-per-pixel */
"27 32 255 2 ",
"   c #555C5E",
".  c #5C5D5E",
"X  c #575D60",
"o  c #585E61",
"O  c #585F61",
"+  c #5B6163",
"@  c #5F6466",
"#  c #606163",
"$  c #616365",
"%  c #606467",
"&  c #606568",
"*  c #616668",
"=  c #626669",
"-  c #63686A",
";  c #63686B",
":  c #65686A",
">  c #656A6D",
",  c #666B6E",
"<  c #676C6F",
"1  c #686B6C",
"2  c #6A6B6D",
"3  c #6B6C6E",
"4  c #6C6C6D",
"5  c #6C6C6E",
"6  c #6C6D6E",
"7  c #6D6D6E",
"8  c #696D70",
"9  c #6D6E70",
"0  c #6D6E71",
"q  c #6E7173",
"w  c #6F7174",
"e  c #6E7275",
"r  c #6F7376",
"t  c #717071",
"y  c #707275",
"u  c #717779",
"i  c #727678",
"p  c #747779",
"a  c #75787A",
"s  c #76797B",
"d  c #76797C",
"f  c #777A7C",
"g  c #797879",
"h  c #78797A",
"j  c #7A7A7C",
"k  c #787B7E",
"l  c #797C7E",
"z  c #7B7D7F",
"x  c #7E7D7D",
"c  c #7F7E7E",
"v  c #7C7E80",
"b  c #7D7E81",
"n  c #807F81",
"m  c #827F83",
"M  c #7E8082",
"N  c #7F8183",
"B  c #808183",
"V  c #808284",
"C  c #808385",
"Z  c #818385",
"A  c #848084",
"S  c #858387",
"D  c #818485",
"F  c #838485",
"G  c #808486",
"H  c #818486",
"J  c #808487",
"K  c #858587",
"L  c #848687",
"P  c #868687",
"I  c #868688",
"U  c #878789",
"Y  c #84878A",
"T  c #888588",
"R  c #888789",
"E  c #86898B",
"W  c #878C8E",
"Q  c #88888A",
"!  c #88898B",
"~  c #89898B",
"^  c #898A8B",
"/  c #88898C",
"(  c #8B888C",
")  c #888B8D",
"_  c #8A8A8C",
"`  c #8C898D",
"'  c #8B8C8E",
"]  c #8A8D8F",
"[  c #8C8C8D",
"{  c #8C8D8E",
"}  c #8C8D8F",
"|  c #8E8C8F",
" . c #8D8E8F",
".. c #8F8E8F",
"X. c #8C8E90",
"o. c #8F8F90",
"O. c #918E91",
"+. c #8F9092",
"@. c #919090",
"#. c #909091",
"$. c #909192",
"%. c #919192",
"&. c #909193",
"*. c #919193",
"=. c #939193",
"-. c #979392",
";. c #929294",
":. c #929395",
">. c #939395",
",. c #959295",
"<. c #949395",
"1. c #949495",
"2. c #959596",
"3. c #959597",
"4. c #969697",
"5. c #979797",
"6. c #979598",
"7. c #959698",
"8. c #969698",
"9. c #969798",
"0. c #97999B",
"q. c #989899",
"w. c #9B9899",
"e. c #98989A",
"r. c #99989B",
"t. c #98999B",
"y. c #9B999A",
"u. c #999A9B",
"i. c #9A9A9B",
"p. c #9D9B9A",
"a. c #9E9C9B",
"s. c #999B9C",
"d. c #9B9B9D",
"f. c #9C9B9D",
"g. c #9B9C9D",
"h. c #9C9C9D",
"j. c #9D9D9D",
"k. c #9F9D9D",
"l. c #9C9C9E",
"z. c #9D9D9E",
"x. c #9E9D9E",
"c. c #9F9F9F",
"v. c #9E9FA0",
"b. c #9E9FA1",
"n. c #A1A1A1",
"m. c #A3A1A0",
"M. c #A0A0A2",
"N. c #A0A1A2",
"B. c #A1A1A3",
"V. c #A2A0A2",
"C. c #A1A2A2",
"Z. c #A2A2A3",
"A. c #A3A3A4",
"S. c #A5A3A5",
"D. c #A3A4A5",
"F. c #A4A4A5",
"G. c #A7A4A5",
"H. c #A5A5A6",
"J. c #A5A6A7",
"K. c #A7A6A7",
"L. c #A6A7A8",
"P. c #A7A7A8",
"I. c #A9A7A9",
"U. c #A9A8A8",
"Y. c #A8A8A9",
"T. c #A9A8A9",
"R. c #A9A8AA",
"E. c #A8A9AA",
"W. c #ABAAAA",
"Q. c #AAAAAB",
"!. c #ABAAAC",
"~. c #ABABAC",
"^. c #ADABAC",
"/. c #ABADAE",
"(. c #ACACAD",
"). c #ADADAE",
"_. c #ADADAF",
"`. c #AEADAF",
"'. c #AEAEAF",
"]. c #AFAEAF",
"[. c #AFAFB0",
"{. c #B0AFB0",
"}. c #AFB0B1",
"|. c #B0B0B1",
" X c #B2B2B3",
".X c #B6B2B2",
"XX c #B3B3B4",
"oX c #B5B5B5",
"OX c #B5B5B6",
"+X c #B6B6B6",
"@X c #B6B6B7",
"#X c #B8B7B7",
"$X c #B8B7B8",
"%X c #B7B8B9",
"&X c #B8B8B9",
"*X c #B8B9B9",
"=X c #B9B9BA",
"-X c #B9BABB",
";X c #BABABB",
":X c #BDB9B9",
">X c #BABBBC",
",X c #BBBBBC",
"<X c #BDBDBE",
"1X c #BEBDBE",
"2X c #BEBDBF",
"3X c #C0BDBD",
"4X c #BEBEC0",
"5X c #BFBFC0",
"6X c #C1C1C2",
"7X c #C1C2C3",
"8X c #C2C2C2",
"9X c #C2C2C3",
"0X c #C3C2C3",
"qX c #C6C2C1",
"wX c #C5C5C5",
"eX c #C5C5C6",
"rX c #C6C6C7",
"tX c #C7C7C7",
"yX c #C8C8C9",
"uX c #C9C9CA",
"iX c #CAC9CA",
"pX c #CACACB",
"aX c #CACBCB",
"sX c #CBCBCB",
"dX c #CCCBCC",
"fX c #CCCCCD",
"gX c #CDCDCE",
"hX c #CECDCE",
"jX c #CECECF",
"kX c #D0CECE",
"lX c #CECFD0",
"zX c #CFCFD0",
"xX c #D0D0D1",
"cX c #D3D1D0",
"vX c #D2D1D1",
"bX c #D0D1D2",
"nX c #D1D1D2",
"mX c #D1D2D3",
"MX c #D2D2D3",
"NX c #D2D3D4",
"BX c #D3D3D4",
"VX c #D4D4D5",
"CX c #D5D5D5",
"ZX c #D7D4D4",
"AX c #D4D5D6",
"SX c #D6D5D6",
"DX c #D5D6D7",
"FX c #D6D6D7",
"GX c #D7D6D7",
"HX c #D8D8D8",
"JX c #D9D9DA",
"KX c #DCDCDD",
"LX c #DDDDDE",
"PX c #DEDEDF",
"IX c None",
/* pixels */
"IXIXIXIXIXIXIXIXIXIXIXIXIXIXIXIXIXIXIXIXIXIXIXIXIXIXIX",
"IXIXIXIXIXIXIXIXIXIXIXIXIXCXIXIXIXIXIXIXIXIXIXIXIXIXIX",
"IXIXIXIXIXIXIXIXIXIXIXIXCXcXqXIXIXIXIXIXIXIXIXIXIXIXIX",
"IXIXIXIXIXIXIXIXIXIXIXCXNXkX:XG.IXIXIXIXIXIXIXIXIXIXIX",
"IXIXIXIXIXIXIXIXIXIXCXxXNXHX3Xp.O.IXIXIXIXIXIXIXIXIXIX",
"IXIXIXIXIXIXIXIXIXIXxXlXCXzXMXn.` Q.IXIXIXIXIXIXIXIXIX",
"IXIXIXIXIXIXIXIXIXxXaXfXtX9XfX2Xq.I.yXIXIXIXIXIXIXIXIX",
"IXIXIXIXIXIXIXIXMXpX9XwX#XOX5X9X{.I.pXKXIXIXIXIXIXIXIX",
"IXIXIXIXIXIXIXMXaX=X=X#XQ.(. X=X[.Z.2XDXpXIXIXIXIXIXIX",
"IXIXIXIXIXIXwXfXOXP. XG.n.x.G.IXQ.s.g.9XqX{.IXIXIXIXIX",
"IXIXIXIXIX^.2XOXs.Z.IXIXq.*.2.IXIX8.] X.(.I.,.IXIXIXIX",
"IXIXIXIX*.G.Q.*.>.IXIXIX*.K K IXIXIXE v d ,.` T IXIXIX",
"IXIXIXIX` w.~ I IXIXIXIX~ j j IXIXIXIXd ; ; s.(.IXIXIX",
"IXIXIXA A b b I IXIXIXIXm 7 2 IXIXIXIXIX@ + ,XPXIXIXIX",
"IXIXw.m r r z IXIXIXIXIXj # % @.IXIXIXIXIX& /.IXIXIXIX",
"IX.Xw.0 % r IXIXIXIXIXIX7 . x p.x.~.IXIXIXIXIXIXIXIXIX",
"IXN C s.b.IXIXIXIXIXIXIX4 c -.p.Q.#XIXIXIXIXIXIXIXIXIX",
"IXo , 0.9X#XIXIXIXIXIXIX7 *.m.k.2.G.IXIXIXIXIXIXIXIXIX",
"IXIX8 a b. XD.IXIXIXIXIX7 @.^.IXIXIXIXIXIXCXxXIXIXIXIX",
"IXIXIXd F n.G.8.IXIXIXIX7 ..!.IXIXIXIXIXfXDXfXCXIXIXIX",
"IXIXIXIXC ..x.2.) IXIXIX2 ) G.IXIXIXIX=XaX,X) N IXIXIX",
"IXIXIXIXIX] >.2.~ IXIXIX2 ~ Z.IXIXIXY.=XOXE r IXIXIXIX",
"IXIXIXIXIX>.:.8...B IXIX: F x.IXIX8.P.(.:.C IXIXIXIXIX",
"IXIXIXIXIXIXw.x.w.I p & @ N 8.IX~ 8.D.g.>.IXIXIXIXIXIX",
"IXIXIXIXIXIXIXn.D.0.d & + v +.N ) g.Z.x.IXIXIXIXIXIXIX",
"IXIXIXIXIXIXIXIX~.[.:., X u G d 8.Y.P.IXIXIXIXIXIXIXIX",
"IXIXIXIXIXIXIXIXIX#X#XI   < r X.[.}.IXIXIXIXIXIXIXIXIX",
"IXIXIXIXIXIXIXIXIXIX5X,Xu X J #X,XIXIXIXIXIXIXIXIXIXIX",
"IXIXIXIXIXIXIXIXIXIXIXlX,XE 4XtXIXIXIXIXIXIXIXIXIXIXIX",
"IXIXIXIXIXIXIXIXIXIXIXNXJXDXNXIXIXIXIXIXIXIXIXIXIXIXIX",
"IXIXIXIXIXIXIXIXIXIXIXIXPXPXIXIXIXIXIXIXIXIXIXIXIXIXIX",
"IXIXIXIXIXIXIXIXIXIXIXIXIXIXIXIXIXIXIXIXIXIXIXIXIXIXIX"
};
