/* XPM */
static char *_b5fa857b90a4546fb1ce184f2b303a5[] = {
/* columns rows colors chars-per-pixel */
"80 80 2 1 ",
"  c black",
". c None",
/* pixels */
"................................................................................",
"................................................................................",
"........................................  ......................................",
".......................................    .....................................",
"......................................      ....................................",
".....................................        ...................................",
"....................................          ..................................",
"....................................           .................................",
"...................................             ................................",
"..................................               ...............................",
".................................                 ..............................",
"................................                   .............................",
"...............................                     ............................",
"...............................                      ...........................",
"..............................                        ..........................",
".............................                          .........................",
"............................                            ........................",
"...........................                              .......................",
"..........................                                ......................",
".........................                                  .....................",
".........................                                   ....................",
"........................                      .              ...................",
".......................                       ..              ..................",
"......................             .          ...              .................",
".....................             ..          ....              ................",
"....................              ..          .....              ...............",
"...................              ...          ......              ..............",
"...................             ....          .......              .............",
"..................             .....          ........              ............",
".................             ......          .........              ...........",
"................             .......          ..........              ..........",
"...............             ........          ...........            ...........",
"..............              ........          ............          ............",
".............              .........          .............        .............",
".............             ..........          ..............      ..............",
"............             ...........                 ........    ...............",
"...........             ............                 .........  ................",
"..........             .............                 ...........................",
".........             ..............                 ...........................",
"........              ..............                 ...........................",
"........              ..............                 ...........................",
".........              .............                 ...........................",
"..........             .............                 ...........................",
"...........             ............                 .........  ................",
"............             ...........                 ........    ...............",
".............             ..........          ..............      ..............",
"..............             .........          .............        .............",
"..............              ........          ............          ............",
"...............              .......          ...........            ...........",
"................             .......          ..........              ..........",
".................             ......          .........              ...........",
"..................             .....          ........              ............",
"...................             ....          .......              .............",
"....................             ...          ......              ..............",
"....................              ..          .....              ...............",
".....................             ..          ....              ................",
"......................             .          ...              .................",
".......................                       ..              ..................",
"........................                      .              ...................",
".........................                                   ....................",
"..........................                                 .....................",
"..........................                                ......................",
"...........................                              .......................",
"............................                            ........................",
".............................                          .........................",
"..............................                        ..........................",
"...............................                      ...........................",
"................................                    ............................",
"................................                   .............................",
".................................                 ..............................",
"..................................               ...............................",
"...................................             ................................",
"....................................           .................................",
".....................................         ..................................",
"......................................       ...................................",
"......................................      ....................................",
".......................................    .....................................",
"........................................  ......................................",
"................................................................................",
"................................................................................"
};
