/* XPM */
static char *bitcoin80_tmp[] = {
/* columns rows colors chars-per-pixel */
"68 80 92 1 ",
"  c #414547",
". c #484C4E",
"X c #474B4D",
"o c #474F51",
"O c #484F51",
"+ c #4B5154",
"@ c #4E5659",
"# c #535557",
"$ c #52575A",
"% c #545B5D",
"& c #595D5F",
"* c #575E60",
"= c #595F61",
"- c #5D6264",
"; c #5F6568",
": c #616466",
"> c #626769",
", c #656A6C",
"< c #6B6C6D",
"1 c #676D70",
"2 c #6B6E70",
"3 c #706F71",
"4 c #6D7174",
"5 c #727475",
"6 c #787776",
"7 c #737679",
"8 c #76797C",
"9 c #7A7B7D",
"0 c #807F7F",
"q c #7D7E81",
"w c #817F82",
"e c #7E8183",
"r c #838385",
"t c #858788",
"y c #898689",
"u c #87888A",
"i c #8B8B8D",
"p c #94908E",
"a c #8E8F90",
"s c #918E91",
"d c #8F9092",
"f c #939395",
"g c #999695",
"h c #9B9897",
"j c #969798",
"k c #999699",
"l c #979899",
"z c #9B9B9C",
"x c #A09E9E",
"c c #9E9FA0",
"v c #A09FA0",
"b c #9FA0A1",
"n c #A3A3A4",
"m c #A8A6A7",
"M c #A7A7A8",
"N c #A9A7A8",
"B c #A7A8A9",
"V c #ABABAC",
"C c #B0AEAE",
"Z c #AFAFB0",
"A c #B0AFB0",
"S c #AFB0B1",
"D c #B3B3B4",
"F c #BAB6B6",
"G c #B7B7B8",
"H c #B8B7B8",
"J c #B7B8B9",
"K c #BBBBBC",
"L c #C1BFBF",
"P c #BFBFC0",
"I c #C0BFC0",
"U c #C3C3C4",
"Y c #C9C5C5",
"T c #C7C7C8",
"R c #C8C7C8",
"E c #C7C8C9",
"W c #CBCBCC",
"Q c #D1CECD",
"! c #D5D1CF",
"~ c #CECFD0",
"^ c #D0CFD0",
"/ c #CFD0D1",
"( c #D3D3D4",
") c #D8D6D6",
"_ c #D7D7D8",
"` c #D8D7D8",
"' c #D7D8D9",
"] c #DBDBDC",
"[ c #DFDFE0",
"{ c #E1E1E2",
"} c #E9E8E8",
"| c None",
/* pixels */
"||||||||||||||||||||||||||||||||||||||||||||||||||||||||||||||||||||",
"||||||||||||||||||||||||||||||||||||||||||||||||||||||||||||||||||||",
"||||||||||||||||||||||||||||||||||||||||||||||||||||||||||||||||||||",
"|||||||||||||||||||||||||||||||||`||||||||||||||||||||||||||||||||||",
"||||||||||||||||||||||||||||||||()!|||||||||||||||||||||||||||||||||",
"|||||||||||||||||||||||||||||||'()!Q||||||||||||||||||||||||||||||||",
"||||||||||||||||||||||||||||||''()!YL|||||||||||||||||||||||||||||||",
"|||||||||||||||||||||||||||||]'(((QYLD||||||||||||||||||||||||||||||",
"||||||||||||||||||||||||||||''((Q(QULVm|||||||||||||||||||||||||||||",
"||||||||||||||||||||||||||||'(//W(QLLCvx||||||||||||||||||||||||||||",
"|||||||||||||||||||||||||||'((/W([]LFCvks|||||||||||||||||||||||||||",
"||||||||||||||||||||||||||((//W/[){)FVvgip||||||||||||||||||||||||||",
"|||||||||||||||||||||||||'(//WW[]Q`{QVxsysz|||||||||||||||||||||||||",
"||||||||||||||||||||||||'(//WW'{QE(][UvsyykN||||||||||||||||||||||||",
"|||||||||||||||||||||||'(//WW/]`UUW(])KgyygND|||||||||||||||||||||||",
"|||||||||||||||||||||||(//WEW(]WUUUW((WAywsvAI||||||||||||||||||||||",
"||||||||||||||||||||||((/WETW((IKPUUW(WTNisvZP~|||||||||||||||||||||",
"|||||||||||||||||||||((~WETTW/RJJKPPUWTUPvkvVKE]||||||||||||||||||||",
"||||||||||||||||||||((WWWUIUTWKDDJKKPTUPKDnvVKE`{|||||||||||||||||||",
"|||||||||||||||||||_(~WWUKKUUTDZSDDJKKUPKAVnVHU([]||||||||||||||||||",
"||||||||||||||||||((~WWTJDKIUKVVZZSDGJPPHAVnnDU(]`^|||||||||||||||||",
"|||||||||||||||||(((WWTJZDJKISBBVBBZZD|KDAVvcMI(`_~T||||||||||||||||",
"|||||||||||||||||((WWEJBVSDKIMnnMMnBZZ||AZVvllMW`(WUP|||||||||||||||",
"||||||||||||||||UW(WEJnMVZDJ|znnnbcnMZ|||VMcljdM((WUKD||||||||||||||",
"|||||||||||||||KUEQWKnbnMVD||zzbbzgznB||||nclfdivWWIHAN|||||||||||||",
"||||||||||||||AJIREUbjznMV|||zzzzlffzz|||||zlfaitcIIHAnv||||||||||||",
"|||||||||||||nZDIUUnfjzbM||||ffhzfuifz||||||ffiueqfHHAvvf|||||||||||",
"||||||||||||cvZDKUMidfzz|||||ffffdtuif|||||||diuqq7aANvkir||||||||||",
"|||||||||||fkvVAKMiipfln|||||apfpyrrui||||||||auqq41qnvkiww|||||||||",
"|||||||||||skvVAMuuiifz||||||iiipt99rt|||||||||uqq41;7ckiwws||||||||",
"||||||||||rsgcnvtttuif|||||||uuiir599r||||||||||q741>*1siwwgV|||||||",
"|||||||||qwigccrertya||||||||tyyu05599|||||||||||q41=*OwCADKKI||||||",
"||||||||wwwiflr9qryi|||||||||wrrt9<<56||||||||||||4,-%ouUW((~|||||||",
"|||||||swqwise89qwt||||||||||000r5:,35|||||||||||||,-%ouE'{{||||||||",
"||||||xswwwyq4779t|||||||||||99005&:,3||||||||||||||-%oiW]}|||||||||",
"||||||gswww912899t|||||||||||9990<#&:,|||||||||||||||%ouE'||||||||||",
"|||||mxswq5,,488r||||||||||||6666<##&<fxgtq8f|||||||||+rU|||||||||||",
"||||Cvgyw5-:<459|||||||||||||6566:X.&ixxzfreV|||||||||||||||||||||||",
"|||LCvksq==:,47||||||||||||||5336: #rhhxnzzVJ|||||||||||||||||||||||",
"||LLCvxw&*=:,5|||||||||||||||<333&X0gghxxnVDK|||||||||||||||||||||||",
"|FDCnzf7;,448||||||||||||||||3<<3:6pgghhxCDDJ|||||||||||||||||||||||",
"|,->,<5nWTPKJ||||||||||||||||<<<<0gppgxxxVDFJ|||||||||||||||||||||||",
"||$%->,9K(WUKJ|||||||||||||||<<<3wxxpghxzzmDJ|||||||||||||||||||||||",
"|||*->14ePWUKJZ||||||||||||||<<<3wxmxhhxxhinJ|||||||||||||||||||||||",
"||||-,144aPTKJSV|||||||||||||<<<30xmCxxxxjueB||||||||||R||||||||||||",
"|||||,1487fPUDSNM||||||||||||<<<30mmCCmmnzi8f|||||||||]EU|||||||||||",
"||||||1478ezKDVNnz|||||||||||<<33yxmCD|||||||||||||||_]WE]||||||||||",
"||||||4487qrnJDNnz|||||||||||<<<30xmmC||||||||||||||^`](W]}|||||||||",
"|||||||788eeuMSVnzj||||||||||<<3<0xmND|||||||||||||E/']WW'[[||||||||",
"||||||||88eetiMVnzjd|||||||||<,<3rxnNV||||||||||||UR/'{WU~_'(|||||||",
"|||||||||qeettdMMxjaa||||||||,<<3eznmV|||||||||||JIE/'[ScnMbcl||||||",
"||||||||||ettiifnbldiu|||||||,,<<0znMV||||||||||DHUW/'Se41;-*|||||||",
"|||||||||||rtiidjbzfiuu||||||,,,<0zbnM|||||||||VDJUW(Se851>-||||||||",
"|||||||||||uuadddlzfiirr|||||,,<<elznM||||||||nVDKUEZtq851,|||||||||",
"||||||||||||iiddfflfaite|||||:,,<9fznM|||||||cbVDKUZieeq54||||||||||",
"|||||||||||||dddffjjpiue9||||:>,<9fzcn||||||fcMZHLZfuteeq|||||||||||",
"||||||||||||||ffflllfate99|||:;,,8pjzb|||||fjcMZJVjautee||||||||||||",
"|||||||||||||||llllzzdire87||--;,8afzb||||adjcBZBlfaaur|||||||||||||",
"||||||||||||||||llzzzzdte954|--->8ifjz|||uufjnBMclldii||||||||||||||",
"|||||||||||||||||zzbbnlie944<--->5iafz||quafcbMccllfd|||||||||||||||",
"|||||||||||||||||bbbbbMlt984,----7udfj|9eudlcbbcclfl||||||||||||||||",
"||||||||||||||||||bnMMMVfe84,-%--4uadfq8euflcMnbccc|||||||||||||||||",
"|||||||||||||||||||nMMBVBd841;%--2eadi48tajbMMnbvv||||||||||||||||||",
"||||||||||||||||||||BBVSSVi42;%%-2eui87eeacBBMMnn|||||||||||||||||||",
"|||||||||||||||||||||VSSDDNe1>-%*1eee41eecSSVBBB||||||||||||||||||||",
"||||||||||||||||||||||DSDJJM8;-@%>qqq1qebDSSZBB|||||||||||||||||||||",
"|||||||||||||||||||||||DJJKIb1-%@;4q>1qlJSSSZZ||||||||||||||||||||||",
"|||||||||||||||||||||||JJJIPPj-%@-41;4lPPPDDG|||||||||||||||||||||||",
"||||||||||||||||||||||||KKPUTUu-@*1;,jPPPDJJ||||||||||||||||||||||||",
"|||||||||||||||||||||||||PUUTEP8@@--dUUPPPP|||||||||||||||||||||||||",
"||||||||||||||||||||||||||TTEW/P1@-dTEUUKP||||||||||||||||||||||||||",
"|||||||||||||||||||||||||||E~//(J;iE~ETUP|||||||||||||||||||||||||||",
"||||||||||||||||||||||||||||//(('U~/~WWT||||||||||||||||||||||||||||",
"||||||||||||||||||||||||||||((_']]_(~~W|||||||||||||||||||||||||||||",
"|||||||||||||||||||||||||||||_'][]__((||||||||||||||||||||||||||||||",
"||||||||||||||||||||||||||||||][[[]'_|||||||||||||||||||||||||||||||",
"|||||||||||||||||||||||||||||||[[[]'||||||||||||||||||||||||||||||||",
"||||||||||||||||||||||||||||||||{[]|||||||||||||||||||||||||||||||||",
"|||||||||||||||||||||||||||||||||{||||||||||||||||||||||||||||||||||",
"||||||||||||||||||||||||||||||||||||||||||||||||||||||||||||||||||||"
};
