/* XPM */
static char *aa9270c1fa54409f9eb6aff2effcd83d[] = {
/* columns rows colors chars-per-pixel */
"32 32 2 1 ",
"  c black",
". c None",
/* pixels */
"................................",
"...............  ...............",
"...............   ..............",
"..............     .............",
".............       ............",
"............         ...........",
"...........           ..........",
"..........             .........",
".........               ........",
".........          .     .......",
"........     .    ...     ......",
".......     ..    ....     .....",
"......     ...    .....    .....",
".....     ....     .....  ......",
"....      ....       ...........",
"...      .....       ...........",
"....     .....       ...........",
".....     ....       .... ......",
".....      ...    ......   .....",
"......     ...    .....     ....",
".......     ..    ....     .....",
"........     .    ...     ......",
".........          .     .......",
"..........              ........",
"..........             .........",
"...........           ..........",
"............         ...........",
".............       ............",
"..............     .............",
"...............   ..............",
"................ ...............",
"................................"
};
